# Wavefront OBJ file automatically generated by Tiled2Unity

# Vertices (Count = 121)
v -2048 -5120 0
v -3072 -5120 0
v -3072 -4096 0
v -2048 -4096 0
v -4096 -5120 0
v -4096 -4096 0
v -5120 -5120 0
v -5120 -4096 0
v -6144 -5120 0
v -6144 -4096 0
v -7168 -5120 0
v -7168 -4096 0
v -8192 -5120 0
v -8192 -4096 0
v -2048 -6144 0
v -3072 -6144 0
v -4096 -6144 0
v -5120 -6144 0
v -6144 -6144 0
v -7168 -6144 0
v -8192 -6144 0
v -2048 -7168 0
v -3072 -7168 0
v -4096 -7168 0
v -5120 -7168 0
v -6144 -7168 0
v -7168 -7168 0
v -8192 -7168 0
v -3072 -8192 0
v -4096 -8192 0
v -5120 -8192 0
v -6144 -8192 0
v -7168 -8192 0
v -3072 -9216 0
v -4096 -9216 0
v -5120 -9216 0
v -6144 -9216 0
v -7168 -9216 0
v -3072 -10240 0
v -4096 -10240 0
v -5120 -10240 0
v -6144 -10240 0
v -7168 -10240 0
v 0 -1024 0
v -1024 -1024 0
v -1024 0 0
v 0 0 0
v -2048 -1024 0
v -2048 0 0
v -3072 -1024 0
v -3072 0 0
v -4096 -1024 0
v -4096 0 0
v -5120 -1024 0
v -5120 0 0
v -6144 -1024 0
v -6144 0 0
v -7168 -1024 0
v -7168 0 0
v -8192 -1024 0
v -8192 0 0
v -9216 -1024 0
v -9216 0 0
v -10240 -1024 0
v -10240 0 0
v 0 -2048 0
v -1024 -2048 0
v -2048 -2048 0
v -8192 -2048 0
v -9216 -2048 0
v -10240 -2048 0
v 0 -3072 0
v -1024 -3072 0
v -2048 -3072 0
v -8192 -3072 0
v -9216 -3072 0
v -10240 -3072 0
v 0 -4096 0
v -1024 -4096 0
v -9216 -4096 0
v -10240 -4096 0
v 0 -5120 0
v -1024 -5120 0
v -9216 -5120 0
v -10240 -5120 0
v 0 -6144 0
v -1024 -6144 0
v -9216 -6144 0
v -10240 -6144 0
v 0 -7168 0
v -1024 -7168 0
v -9216 -7168 0
v -10240 -7168 0
v 0 -8192 0
v -1024 -8192 0
v -2048 -8192 0
v -8192 -8192 0
v -9216 -8192 0
v -10240 -8192 0
v 0 -9216 0
v -1024 -9216 0
v -2048 -9216 0
v -8192 -9216 0
v -9216 -9216 0
v -10240 -9216 0
v 0 -10240 0
v -1024 -10240 0
v -2048 -10240 0
v -8192 -10240 0
v -9216 -10240 0
v -10240 -10240 0
v -3072 -2048 0
v -4096 -2048 0
v -5120 -2048 0
v -6144 -2048 0
v -7168 -2048 0
v -3072 -3072 0
v -4096 -3072 0
v -5120 -3072 0
v -6144 -3072 0
v -7168 -3072 0

# Texture cooridinates (Count = 4)
vt 0.0001220703 0.0001220703
vt 0.9998779 0.0001220703
vt 0.9998779 0.9998779
vt 0.0001220703 0.9998779

# Normal
vn 0 0 -1

# Groups (Count = 3)

g mesh_0001
f 1/1/1 2/2/1 3/3/1 4/4/1
f 2/1/1 5/2/1 6/3/1 3/4/1
f 5/1/1 7/2/1 8/3/1 6/4/1
f 7/1/1 9/2/1 10/3/1 8/4/1
f 9/1/1 11/2/1 12/3/1 10/4/1
f 11/1/1 13/2/1 14/3/1 12/4/1
f 15/1/1 16/2/1 2/3/1 1/4/1
f 16/1/1 17/2/1 5/3/1 2/4/1
f 17/1/1 18/2/1 7/3/1 5/4/1
f 18/1/1 19/2/1 9/3/1 7/4/1
f 19/1/1 20/2/1 11/3/1 9/4/1
f 20/1/1 21/2/1 13/3/1 11/4/1
f 22/1/1 23/2/1 16/3/1 15/4/1
f 23/1/1 24/2/1 17/3/1 16/4/1
f 24/1/1 25/2/1 18/3/1 17/4/1
f 25/1/1 26/2/1 19/3/1 18/4/1
f 26/1/1 27/2/1 20/3/1 19/4/1
f 27/1/1 28/2/1 21/3/1 20/4/1
f 29/1/1 30/2/1 24/3/1 23/4/1
f 30/1/1 31/2/1 25/3/1 24/4/1
f 31/1/1 32/2/1 26/3/1 25/4/1
f 32/1/1 33/2/1 27/3/1 26/4/1
f 34/1/1 35/2/1 30/3/1 29/4/1
f 35/1/1 36/2/1 31/3/1 30/4/1
f 36/1/1 37/2/1 32/3/1 31/4/1
f 37/1/1 38/2/1 33/3/1 32/4/1
f 39/1/1 40/2/1 35/3/1 34/4/1
f 40/1/1 41/2/1 36/3/1 35/4/1
f 41/1/1 42/2/1 37/3/1 36/4/1
f 42/1/1 43/2/1 38/3/1 37/4/1

g mesh_0002
f 44/1/1 45/2/1 46/3/1 47/4/1
f 45/1/1 48/2/1 49/3/1 46/4/1
f 48/1/1 50/2/1 51/3/1 49/4/1
f 50/1/1 52/2/1 53/3/1 51/4/1
f 52/1/1 54/2/1 55/3/1 53/4/1
f 54/1/1 56/2/1 57/3/1 55/4/1
f 56/1/1 58/2/1 59/3/1 57/4/1
f 58/1/1 60/2/1 61/3/1 59/4/1
f 60/1/1 62/2/1 63/3/1 61/4/1
f 62/1/1 64/2/1 65/3/1 63/4/1
f 66/1/1 67/2/1 45/3/1 44/4/1
f 67/1/1 68/2/1 48/3/1 45/4/1
f 69/1/1 70/2/1 62/3/1 60/4/1
f 70/1/1 71/2/1 64/3/1 62/4/1
f 72/1/1 73/2/1 67/3/1 66/4/1
f 73/1/1 74/2/1 68/3/1 67/4/1
f 75/1/1 76/2/1 70/3/1 69/4/1
f 76/1/1 77/2/1 71/3/1 70/4/1
f 78/1/1 79/2/1 73/3/1 72/4/1
f 79/1/1 4/2/1 74/3/1 73/4/1
f 14/1/1 80/2/1 76/3/1 75/4/1
f 80/1/1 81/2/1 77/3/1 76/4/1
f 82/1/1 83/2/1 79/3/1 78/4/1
f 83/1/1 1/2/1 4/3/1 79/4/1
f 13/1/1 84/2/1 80/3/1 14/4/1
f 84/1/1 85/2/1 81/3/1 80/4/1
f 86/1/1 87/2/1 83/3/1 82/4/1
f 87/1/1 15/2/1 1/3/1 83/4/1
f 21/1/1 88/2/1 84/3/1 13/4/1
f 88/1/1 89/2/1 85/3/1 84/4/1
f 90/1/1 91/2/1 87/3/1 86/4/1
f 91/1/1 22/2/1 15/3/1 87/4/1
f 28/1/1 92/2/1 88/3/1 21/4/1
f 92/1/1 93/2/1 89/3/1 88/4/1
f 94/1/1 95/2/1 91/3/1 90/4/1
f 95/1/1 96/2/1 22/3/1 91/4/1
f 96/1/1 29/2/1 23/3/1 22/4/1
f 33/1/1 97/2/1 28/3/1 27/4/1
f 97/1/1 98/2/1 92/3/1 28/4/1
f 98/1/1 99/2/1 93/3/1 92/4/1
f 100/1/1 101/2/1 95/3/1 94/4/1
f 101/1/1 102/2/1 96/3/1 95/4/1
f 102/1/1 34/2/1 29/3/1 96/4/1
f 38/1/1 103/2/1 97/3/1 33/4/1
f 103/1/1 104/2/1 98/3/1 97/4/1
f 104/1/1 105/2/1 99/3/1 98/4/1
f 106/1/1 107/2/1 101/3/1 100/4/1
f 107/1/1 108/2/1 102/3/1 101/4/1
f 108/1/1 39/2/1 34/3/1 102/4/1
f 43/1/1 109/2/1 103/3/1 38/4/1
f 109/1/1 110/2/1 104/3/1 103/4/1
f 110/1/1 111/2/1 105/3/1 104/4/1

g mesh_0003
f 68/1/1 112/2/1 50/3/1 48/4/1
f 112/1/1 113/2/1 52/3/1 50/4/1
f 113/1/1 114/2/1 54/3/1 52/4/1
f 114/1/1 115/2/1 56/3/1 54/4/1
f 115/1/1 116/2/1 58/3/1 56/4/1
f 116/1/1 69/2/1 60/3/1 58/4/1
f 74/1/1 117/2/1 112/3/1 68/4/1
f 117/1/1 118/2/1 113/3/1 112/4/1
f 118/1/1 119/2/1 114/3/1 113/4/1
f 119/1/1 120/2/1 115/3/1 114/4/1
f 120/1/1 121/2/1 116/3/1 115/4/1
f 121/1/1 75/2/1 69/3/1 116/4/1
f 4/1/1 3/2/1 117/3/1 74/4/1
f 3/1/1 6/2/1 118/3/1 117/4/1
f 6/1/1 8/2/1 119/3/1 118/4/1
f 8/1/1 10/2/1 120/3/1 119/4/1
f 10/1/1 12/2/1 121/3/1 120/4/1
f 12/1/1 14/2/1 75/3/1 121/4/1

