# Wavefront OBJ file automatically generated by Tiled2Unity

# Vertices (Count = 61)
v 0 -1024 0
v -1024 -1024 0
v -1024 0 0
v 0 0 0
v 0 -2048 0
v -1024 -2048 0
v -2048 -2048 0
v -2048 -1024 0
v -3072 -2048 0
v -3072 -1024 0
v -4096 -2048 0
v -4096 -1024 0
v -5120 -2048 0
v -5120 -1024 0
v -6144 -2048 0
v -6144 -1024 0
v -7168 -2048 0
v -7168 -1024 0
v -8192 -2048 0
v -8192 -1024 0
v -1024 -3072 0
v -2048 -3072 0
v -3072 -3072 0
v -5120 -3072 0
v -6144 -3072 0
v -7168 -3072 0
v -8192 -3072 0
v -9216 -3072 0
v -9216 -2048 0
v -1024 -4096 0
v -2048 -4096 0
v -5120 -4096 0
v -6144 -4096 0
v -1024 -5120 0
v -2048 -5120 0
v -3072 -5120 0
v -3072 -4096 0
v -4096 -5120 0
v -4096 -4096 0
v -5120 -5120 0
v -6144 -5120 0
v -4096 -8192 0
v -5120 -8192 0
v -5120 -7168 0
v -4096 -7168 0
v -6144 -8192 0
v -6144 -7168 0
v -7168 -8192 0
v -7168 -7168 0
v 0 -9216 0
v -1024 -9216 0
v -1024 -8192 0
v 0 -8192 0
v -2048 -9216 0
v -2048 -8192 0
v -3072 -9216 0
v -3072 -8192 0
v 0 -10240 0
v -1024 -10240 0
v -2048 -10240 0
v -3072 -10240 0

# Texture cooridinates (Count = 4)
vt 0.0001220703 0.0001220703
vt 0.9998779 0.0001220703
vt 0.9998779 0.9998779
vt 0.0001220703 0.9998779

# Normal
vn 0 0 -1

# Groups (Count = 1)

g mesh_0001
f 1/1/1 2/2/1 3/3/1 4/4/1
f 5/1/1 6/2/1 2/3/1 1/4/1
f 6/1/1 7/2/1 8/3/1 2/4/1
f 7/1/1 9/2/1 10/3/1 8/4/1
f 9/1/1 11/2/1 12/3/1 10/4/1
f 11/1/1 13/2/1 14/3/1 12/4/1
f 13/1/1 15/2/1 16/3/1 14/4/1
f 15/1/1 17/2/1 18/3/1 16/4/1
f 17/1/1 19/2/1 20/3/1 18/4/1
f 21/1/1 22/2/1 7/3/1 6/4/1
f 22/1/1 23/2/1 9/3/1 7/4/1
f 24/1/1 25/2/1 15/3/1 13/4/1
f 26/1/1 27/2/1 19/3/1 17/4/1
f 27/1/1 28/2/1 29/3/1 19/4/1
f 30/1/1 31/2/1 22/3/1 21/4/1
f 32/1/1 33/2/1 25/3/1 24/4/1
f 34/1/1 35/2/1 31/3/1 30/4/1
f 35/1/1 36/2/1 37/3/1 31/4/1
f 36/1/1 38/2/1 39/3/1 37/4/1
f 38/1/1 40/2/1 32/3/1 39/4/1
f 40/1/1 41/2/1 33/3/1 32/4/1
f 42/1/1 43/2/1 44/3/1 45/4/1
f 43/1/1 46/2/1 47/3/1 44/4/1
f 46/1/1 48/2/1 49/3/1 47/4/1
f 50/1/1 51/2/1 52/3/1 53/4/1
f 51/1/1 54/2/1 55/3/1 52/4/1
f 54/1/1 56/2/1 57/3/1 55/4/1
f 58/1/1 59/2/1 51/3/1 50/4/1
f 59/1/1 60/2/1 54/3/1 51/4/1
f 60/1/1 61/2/1 56/3/1 54/4/1

